<mxfile host="Electron" agent="Mozilla/5.0 (Macintosh; Intel Mac OS X 10_15_7) AppleWebKit/537.36 (KHTML, like Gecko) draw.io/26.0.4 Chrome/128.0.6613.186 Electron/32.2.5 Safari/537.36" version="26.0.4">
  <diagram name="PÃ¡gina-1" id="Rnap-y6KepE4weGz2F6O">
    <mxGraphModel dx="1646" dy="798" grid="0" gridSize="10" guides="1" tooltips="1" connect="1" arrows="1" fold="1" page="1" pageScale="1" pageWidth="1169" pageHeight="827" math="0" shadow="0">
      <root>
        <mxCell id="0" />
        <mxCell id="1" parent="0" />
        <mxCell id="vhxlrUzGfdwoJGgDlV5U-1" value="&lt;b&gt;Google &lt;/b&gt;Cloud Platform" style="fillColor=none;strokeColor=default;shadow=0;gradientColor=none;fontSize=14;align=left;spacing=10;fontColor=#717171;9E9E9E;verticalAlign=top;spacingTop=-4;fontStyle=0;spacingLeft=40;html=1;whiteSpace=wrap;movable=1;resizable=1;rotatable=1;deletable=1;editable=1;locked=0;connectable=1;" parent="1" vertex="1">
          <mxGeometry x="120" y="120" width="920" height="600" as="geometry" />
        </mxCell>
        <mxCell id="vhxlrUzGfdwoJGgDlV5U-12" value="" style="shadow=1;strokeWidth=1;rounded=1;absoluteArcSize=1;arcSize=2;fillColor=none;" parent="vhxlrUzGfdwoJGgDlV5U-1" vertex="1">
          <mxGeometry x="307" y="108" width="562" height="460" as="geometry" />
        </mxCell>
        <mxCell id="vhxlrUzGfdwoJGgDlV5U-13" value="Standard&#xa;Network Tier" style="editableCssRules=.*;html=1;fontColor=#999999;shape=image;verticalLabelPosition=middle;verticalAlign=middle;labelPosition=right;align=left;spacingLeft=20;part=1;points=[];imageAspect=0;image=data:image/svg+xml,PHN2ZyB4bWxucz0iaHR0cDovL3d3dy53My5vcmcvMjAwMC9zdmciIHhtbG5zOnY9Imh0dHBzOi8vdmVjdGEuaW8vbmFubyIgd2lkdGg9IjQyNC4wMDEwMzc1OTc2NTYyNSIgaGVpZ2h0PSIyMTMuOTk4Mzk3ODI3MTQ4NDQiIHZpZXdCb3g9Ii0wLjAwMDAyMDQ4Mjg0MTEzNjk4MTczMyAwIDQyNC4wMDEwMzc1OTc2NTYyNSAyMTMuOTk4Mzk3ODI3MTQ4NDQiPiYjeGE7CTxzdHlsZSB0eXBlPSJ0ZXh0L2NzcyI+JiN4YTsJLnN0MHtmaWxsOiM0Mjg1ZjQ7fSYjeGE7CTwvc3R5bGU+JiN4YTsJPHBhdGggY2xhc3M9InN0MCIgZD0iTTk5LjQzMSA0Ni44NTRsLjM3NC4yODkgMTA1Ljc1OCA4My4yMDhhNDIuMDggNDIuMDggMCAwIDEgNC43MTUtLjM4OWwuNzg5LS4wMTNjMTcuNDExLS4wMDQgMzMuMDE4IDEwLjc1OCAzOS4yMjMgMjcuMDQ5czEuNzIxIDM0LjcyNS0xMS4yNzEgNDYuMzMzYTQxLjkzIDQxLjkzIDAgMCAxLTQ3LjI1MyA1Ljk1NiA0Mi4wNCA0Mi4wNCAwIDAgMS0yMi40NDQtNDEuNTcxbC4wNTYtLjUxOS0uMDI2LS4wM0w4Ny43IDU4Ljk3NmMtOS40ODEtMTIuNTYyLS41NzUtMjEuNDg2IDExLjczLTEyLjEyM3ptMzA2LjgzOCAxMjcuNzI2YzkuNzkzIDAgMTcuNzMyIDcuOTQ5IDE3LjczMiAxNy43NTVzLTcuOTM5IDE3Ljc1NS0xNy43MzIgMTcuNzU1LTE3LjczMi03Ljk0OS0xNy43MzItMTcuNzU1IDcuOTM5LTE3Ljc1NSAxNy43MzItMTcuNzU1ek02MC4yNDEgNjguNzk3bDIwLjQyMyAyOC4zMmEyMTcuMTYgMjE3LjE2IDAgMCAwLTQ2LjkyIDk3LjM5OSAxNy4wNCAxNy4wNCAwIDAgMS0xMS4yODggMTIuOTYxYy01LjgyMyAxLjk2NC0xMi4yNTEuNjMzLTE2LjgxOS0zLjQ4MmExNy4wNiAxNy4wNiAwIDAgMS01LjIyOS0xNi4zOGM4LjgxNy00NC4zMDUgMjkuNDk5LTg1LjM3NiA1OS44MzMtMTE4LjgxN3ptMzIyLjc2MiA0MS4zMDhjOS43OTMgMCAxNy43MzIgNy45NDkgMTcuNzMyIDE3Ljc1NXMtNy45MzkgMTcuNzU1LTE3LjczMiAxNy43NTUtMTcuNzMyLTcuOTQ5LTE3LjczMi0xNy43NTUgNy45MzktMTcuNzU1IDE3LjczMi0xNy43NTV6bS00MS42MjgtNTUuMDk0YzkuNzkzIDAgMTcuNzMyIDcuOTQ5IDE3LjczMiAxNy43NTVzLTcuOTM5IDE3Ljc1NS0xNy43MzIgMTcuNzU1LTE3LjczMi03Ljk0OS0xNy43MzItMTcuNzU1IDcuOTM5LTE3Ljc1NSAxNy43MzItMTcuNzU1em0tNTcuNzkyLTM4Ljk3OWM5Ljc5MyAwIDE3LjczMiA3Ljk0OSAxNy43MzIgMTcuNzU1cy03LjkzOSAxNy43NTUtMTcuNzMyIDE3Ljc1NS0xNy43MzItNy45NDktMTcuNzMyLTE3Ljc1NSA3LjkzOS0xNy43NTUgMTcuNzMyLTE3Ljc1NXptLTEzMy4wNzQtNC4zMjdjOS43OTMgMCAxNy43MzIgNy45NDkgMTcuNzMyIDE3Ljc1NXMtNy45MzkgMTcuNzU1LTE3LjczMiAxNy43NTUtMTcuNzMyLTcuOTQ5LTE3LjczMi0xNy43NTUgNy45MzktMTcuNzU1IDE3LjczMi0xNy43NTV6TTIxNy4zNTcgMGM5Ljc5MyAwIDE3LjczMiA3Ljk0OSAxNy43MzIgMTcuNzU1UzIyNy4xNSAzNS41MSAyMTcuMzU3IDM1LjUxcy0xNy43MzItNy45NDktMTcuNzMyLTE3Ljc1NVMyMDcuNTY0IDAgMjE3LjM1NyAweiIgZmlsbD0iIzQyODVmNCIvPiYjeGE7PC9zdmc+;" parent="vhxlrUzGfdwoJGgDlV5U-12" vertex="1">
          <mxGeometry width="30" height="15" relative="1" as="geometry">
            <mxPoint x="15" y="22" as="offset" />
          </mxGeometry>
        </mxCell>
        <mxCell id="vhxlrUzGfdwoJGgDlV5U-28" value="URL&lt;div&gt;&lt;div style=&quot;background-color: rgb(31, 31, 31); line-height: 24px;&quot;&gt;&lt;font face=&quot;JetBrains Mono, Menlo, Monaco, Courier New, monospace&quot; color=&quot;#ffab70&quot;&gt;&lt;span style=&quot;font-size: 13.5px; white-space: pre;&quot;&gt;https://nginx-service-xpwllkmjza-uc.a.run.app&lt;/span&gt;&lt;/font&gt;&lt;br&gt;&lt;/div&gt;&lt;/div&gt;" style="whiteSpace=wrap;html=1;strokeColor=#dddddd;shadow=1;strokeWidth=1;rounded=1;arcSize=2;" parent="vhxlrUzGfdwoJGgDlV5U-12" vertex="1">
          <mxGeometry x="78" y="355" width="401" height="60" as="geometry" />
        </mxCell>
        <mxCell id="OucOqlFwuCYd8HFAKLbQ-5" style="edgeStyle=orthogonalEdgeStyle;rounded=0;orthogonalLoop=1;jettySize=auto;html=1;entryX=0.5;entryY=0;entryDx=0;entryDy=0;" edge="1" parent="vhxlrUzGfdwoJGgDlV5U-12" source="OucOqlFwuCYd8HFAKLbQ-3" target="vhxlrUzGfdwoJGgDlV5U-28">
          <mxGeometry relative="1" as="geometry" />
        </mxCell>
        <mxCell id="OucOqlFwuCYd8HFAKLbQ-3" value="" style="strokeColor=#dddddd;shadow=1;strokeWidth=1;rounded=1;absoluteArcSize=1;arcSize=2;" vertex="1" parent="vhxlrUzGfdwoJGgDlV5U-12">
          <mxGeometry x="187" y="213" width="183" height="60" as="geometry" />
        </mxCell>
        <mxCell id="OucOqlFwuCYd8HFAKLbQ-4" value="Cloud Run" style="editableCssRules=.*;html=1;fontColor=#999999;shape=image;verticalLabelPosition=middle;verticalAlign=middle;labelPosition=right;align=left;spacingLeft=20;part=1;points=[];imageAspect=0;image=data:image/svg+xml,PHN2ZyB4bWxucz0iaHR0cDovL3d3dy53My5vcmcvMjAwMC9zdmciIHhtbG5zOnY9Imh0dHBzOi8vdmVjdGEuaW8vbmFubyIgd2lkdGg9IjM2NS40NjQ5OTY3NzA0MjQ5MyIgaGVpZ2h0PSIzNzkuMjIyOTk0NDYzNTc3OTUiIHZpZXdCb3g9IjAgMCA5Ni42OTU5OTkxNDU1MDc4MSAxMDAuMzM1OTk4NTM1MTU2MjUiPiYjeGE7PHN0eWxlIHR5cGU9InRleHQvY3NzIj4mI3hhOwkuc3Qwe2ZpbGw6IzQyODVmNDt9JiN4YTsJLnN0MXtmaWxsOiNhZWNiZmE7fSYjeGE7PC9zdHlsZT4mI3hhOwk8cGF0aCBjbGFzcz0ic3QwIiBkPSJNMjkuNzk0IDEwMC4zMzZMNDYuOTIgNTAuMTY4aDQ5Ljc3NnpNMCA5OS42NzFsMTIuOTc2LTQ5LjUwMkgyOS4yMkwxNi44OTcgOTIuMDU0eiIvPiYjeGE7CTxwYXRoIGNsYXNzPSJzdDEiIGQ9Ik0yOS43OTQgMEw0Ni45MiA1MC4xNjhoNDkuNzc2ek0wIC42NjZsMTIuOTc2IDQ5LjUwMkgyOS4yMkwxNi44OTcgOC4yODN6Ii8+JiN4YTs8L3N2Zz4=;" vertex="1" parent="OucOqlFwuCYd8HFAKLbQ-3">
          <mxGeometry width="30" height="30" relative="1" as="geometry">
            <mxPoint x="15" y="15" as="offset" />
          </mxGeometry>
        </mxCell>
        <mxCell id="vhxlrUzGfdwoJGgDlV5U-2" value="" style="shape=mxgraph.gcp2.google_cloud_platform;fillColor=#F6F6F6;strokeColor=none;shadow=0;gradientColor=none;" parent="vhxlrUzGfdwoJGgDlV5U-1" vertex="1">
          <mxGeometry width="23" height="20" relative="1" as="geometry">
            <mxPoint x="20" y="10" as="offset" />
          </mxGeometry>
        </mxCell>
        <mxCell id="vhxlrUzGfdwoJGgDlV5U-19" value="Google Network" style="sketch=0;html=1;aspect=fixed;strokeColor=none;shadow=0;fillColor=#3B8DF1;verticalAlign=top;labelPosition=center;verticalLabelPosition=bottom;shape=mxgraph.gcp2.google_network" parent="vhxlrUzGfdwoJGgDlV5U-1" vertex="1">
          <mxGeometry x="176" y="300" width="100" height="100" as="geometry" />
        </mxCell>
        <mxCell id="vhxlrUzGfdwoJGgDlV5U-39" value="" style="shape=image;verticalLabelPosition=bottom;verticalAlign=top;imageAspect=0;image=data:image/svg+xml,PHN2ZyB4bWxucz0iaHR0cDovL3d3dy53My5vcmcvMjAwMC9zdmciIHdpZHRoPSIyNCIgdmlld0JveD0iMCAwIDI0IDI0IiBoZWlnaHQ9IjI0IiBmaWxsPSJub25lIj48ZyBmaWxsLXJ1bGU9ImV2ZW5vZGQiIGZpbGw9IiM3YjQyYmMiIGNsaXAtcnVsZT0iZXZlbm9kZCI+PHBhdGggZD0ibTguODkyOTQgNC42MTc1MiA2LjIxNDE2IDMuNTk3NjF2Ny4xOTg5N2wtNi4yMTQxNi0zLjU5OTV6Ii8+PHBhdGggZD0ibTE1Ljc4NzcgOC4yMTUxM3Y3LjE5ODk3bDYuMjEyMy0zLjU5OTV2LTcuMTk3MDh6Ii8+PHBhdGggZD0ibTIgLjYwMDAwNnY3LjE5NzExNGw2LjIxMjMgMy41OTk0OHYtNy4xOTcwOXoiLz48cGF0aCBkPSJtOC44OTI5NCAxOS44MDA1IDYuMjEyMjYgMy41OTk1di03LjE0OTgtLjA0NzNsLTYuMjEyMjYtMy41OTk1eiIvPjwvZz48L3N2Zz4=" parent="vhxlrUzGfdwoJGgDlV5U-1" vertex="1">
          <mxGeometry x="68" y="538" width="46" height="46" as="geometry" />
        </mxCell>
        <mxCell id="vhxlrUzGfdwoJGgDlV5U-40" value="TERRAFORM" style="whiteSpace=wrap;html=1;verticalAlign=top;" parent="vhxlrUzGfdwoJGgDlV5U-1" vertex="1">
          <mxGeometry x="150" y="549" width="120" height="24" as="geometry" />
        </mxCell>
        <mxCell id="vhxlrUzGfdwoJGgDlV5U-41" value="" style="edgeStyle=orthogonalEdgeStyle;rounded=0;orthogonalLoop=1;jettySize=auto;html=1;" parent="vhxlrUzGfdwoJGgDlV5U-1" source="vhxlrUzGfdwoJGgDlV5U-39" target="vhxlrUzGfdwoJGgDlV5U-40" edge="1">
          <mxGeometry relative="1" as="geometry" />
        </mxCell>
        <mxCell id="vhxlrUzGfdwoJGgDlV5U-23" value="" style="edgeStyle=orthogonalEdgeStyle;fontSize=12;html=1;endArrow=blockThin;endFill=1;rounded=0;strokeWidth=2;endSize=4;startSize=4;dashed=0;strokeColor=#4284F3;exitX=1.013;exitY=0.519;exitDx=0;exitDy=0;exitPerimeter=0;entryX=0.326;entryY=0.53;entryDx=0;entryDy=0;entryPerimeter=0;" parent="vhxlrUzGfdwoJGgDlV5U-1" source="vhxlrUzGfdwoJGgDlV5U-19" edge="1" target="vhxlrUzGfdwoJGgDlV5U-12">
          <mxGeometry width="100" relative="1" as="geometry">
            <mxPoint x="407" y="270" as="sourcePoint" />
            <mxPoint x="362" y="352" as="targetPoint" />
          </mxGeometry>
        </mxCell>
        <mxCell id="vhxlrUzGfdwoJGgDlV5U-3" value="&lt;h1 style=&quot;box-sizing: border-box; margin-right: 0px; margin-bottom: var(--base-size-16); margin-left: 0px; font-weight: var(--base-text-weight-semibold, 600); line-height: 1.25; padding-bottom: 0.3em; border-bottom: 1px solid var(--borderColor-muted, var(--color-border-muted)); caret-color: rgb(240, 246, 252); font-family: -apple-system, BlinkMacSystemFont, &amp;quot;Segoe UI&amp;quot;, &amp;quot;Noto Sans&amp;quot;, Helvetica, Arial, sans-serif, &amp;quot;Apple Color Emoji&amp;quot;, &amp;quot;Segoe UI Emoji&amp;quot;; margin-top: 0px !important;&quot; dir=&quot;auto&quot; class=&quot;heading-element&quot; tabindex=&quot;-1&quot;&gt;&lt;font style=&quot;font-size: 18px; color: rgb(255, 255, 255);&quot;&gt;Arquitetura GCP com Terraform: InstÃ¢ncia Cloudrun + NGINX&amp;nbsp;&lt;/font&gt;&lt;/h1&gt;" style="fillColor=none;strokeColor=#006EAF;shadow=1;fontSize=14;align=center;spacingLeft=50;fontColor=#ffffff;whiteSpace=wrap;html=1;movable=1;resizable=1;rotatable=1;deletable=1;editable=1;locked=0;connectable=1;" parent="1" vertex="1">
          <mxGeometry x="119" y="62" width="923" height="40" as="geometry" />
        </mxCell>
        <mxCell id="vhxlrUzGfdwoJGgDlV5U-14" value="UsuÃ¡rios" style="image;aspect=fixed;perimeter=ellipsePerimeter;html=1;align=center;shadow=0;dashed=0;spacingTop=3;image=img/lib/active_directory/user_accounts.svg;" parent="1" vertex="1">
          <mxGeometry x="168" y="447" width="50" height="48.5" as="geometry" />
        </mxCell>
        <mxCell id="vhxlrUzGfdwoJGgDlV5U-22" value="" style="edgeStyle=orthogonalEdgeStyle;fontSize=12;html=1;endArrow=blockThin;endFill=1;rounded=0;strokeWidth=2;endSize=4;startSize=4;dashed=0;strokeColor=#4284F3;exitX=1;exitY=0.5;exitDx=0;exitDy=0;" parent="1" source="vhxlrUzGfdwoJGgDlV5U-14" edge="1">
          <mxGeometry width="100" relative="1" as="geometry">
            <mxPoint x="527" y="390" as="sourcePoint" />
            <mxPoint x="294" y="471" as="targetPoint" />
          </mxGeometry>
        </mxCell>
      </root>
    </mxGraphModel>
  </diagram>
</mxfile>
